<svg xmlns="http://www.w3.org/2000/svg" width="700" height="278.25" viewBox="0 0 700 278.25"><defs><style>.cls-1{fill:#ededed;}.cls-2{fill:#aaa;}</style></defs><title>renrakusaki</title><g id="レイヤー_2" data-name="レイヤー 2"><rect class="cls-1" x="63.33" y="33.79" width="573.33" height="210.67" rx="23.11"/><path class="cls-2" d="M230.46,130.89H217V157h-3.69V114.35h17.19ZM217,121.13h10V117.2H217Zm0,6.91h10v-4.2H217Zm25.32,21.45H227.05V153h-3.46v-17.9h18.69Zm-15.23-11.4v8.36h11.73v-8.36Zm26,14.15c0,3.13-1.27,4.35-4.58,4.35-1.31,0-4.35-.14-6.31-.28l-.7-3.65c2.8.28,4.86.42,6.26.42s1.68-.28,1.68-1.54V130.89h-14V114.35h17.62ZM239,121.13h10.42V117.2H239Zm0,6.91h10.42v-4.2H239Z"/><path class="cls-2" d="M279.34,142.43a37.88,37.88,0,0,1-4.34,8.79c-1.27,1.72-2.76,2.66-4.26,2.66-2.1,0-4.2-1.87-5.79-5.09-2.48-5.1-3.55-12-3.55-23,0-2.8.09-5.14.28-8.08l3.78.28c-.14,2.52-.23,4.76-.23,7.24,0,10.05.84,16.49,2.66,20.79.85,2.06,2,3.46,2.85,3.46,1.31,0,3.6-3.74,5.66-9.34Zm15.7,4.49c-1.68-12.43-3.46-19.07-7.43-27.34l3.46-.84c4.44,8.88,6.35,15.47,7.8,27.24Z"/><path class="cls-2" d="M337.85,127.29v3.18H316v-3.13a51.35,51.35,0,0,1-9.54,5.84l-2.33-3.08c9-3.83,15.79-9.82,20-17.48h4.16C333.69,120,340,125,349.15,129.16L347,132.48a58.1,58.1,0,0,1-20.56-16.59,40.43,40.43,0,0,1-10.33,11.4ZM342,157h-3.78v-2.95H315.47V157h-3.79V136.68H342Zm-26.53-6.17h22.75v-11H315.47Z"/><path class="cls-2" d="M365.65,114.35v12.71c4.82-4.58,9.81-7,14.72-7a12.12,12.12,0,0,1,9.53,4.16,16.57,16.57,0,0,1,3.79,10.55c0,10.89-4.68,15.61-17.52,17.81l-1.69-3.32c5-.7,8.74-2,11.17-3.74,2.94-2.15,4.21-5.37,4.21-10.75a13.53,13.53,0,0,0-2.67-8.22,8.38,8.38,0,0,0-6.87-3.13c-5,0-9.2,2.38-14.67,8.41v22.94H362V135.94c-1.78,2.29-3.55,4.67-7.29,9.81l-.65.89-1.83-4.07A117.59,117.59,0,0,0,362,130.28v-4.67h-8.46v-3.27H362v-8Z"/><path class="cls-2" d="M432.05,115v10h8.65v3.27h-8.65v9.06c0,3.37-1.07,4.49-4.2,4.49a24.53,24.53,0,0,1-6.68-1.12v-3.27a22.62,22.62,0,0,0,5.65,1c1.26,0,1.59-.33,1.59-1.59v-8.55H411.73v18c0,3.46,1.12,3.88,11.12,3.88,4.53,0,8.36-.14,12.66-.52l.14,3.51c-4,.28-8.64.42-13,.42-7.19,0-10.09-.28-11.87-1.22s-2.75-2.66-2.75-5.56v-18.5h-8.51v-3.27H408v-9.58h3.69v9.58h16.68V115Z"/><path class="cls-2" d="M465.37,120.61v-8h3.7v8H484.9v3.18H469.07v9h19.62v3.18H474.16v14.71c0,1.69.42,1.87,4.62,1.87s4.86-.18,5.33-1.26c.37-.93.56-2.75.65-6.07l3.6,1.31c-.14,4.72-.56,7-1.59,8s-3.41,1.45-8.5,1.45c-6.35,0-7.85-.75-7.85-4V135.94h-8.18v.42c-.18,6.63-1.35,10.74-4,13.87a22.67,22.67,0,0,1-11.22,6.5l-2-3c5.38-1.36,9.67-4.16,11.45-7.38,1.31-2.29,1.92-5.52,2-10.42H445v-3.18h20.37v-9H454.25A31.12,31.12,0,0,1,450,131l-2.85-2.24a38.78,38.78,0,0,0,6.63-14.53l3.41.65c-.56,2.2-1.07,4-1.68,5.7Z"/></g></svg>